<svg version="1.1" id="Layer_1" xmlns="http://www.w3.org/2000/svg" xmlns:xlink="http://www.w3.org/1999/xlink" x="0px" y="0px"
	 width="100%" viewBox="0 0 1024 1024" enable-background="new 0 0 1024 1024" xml:space="preserve">
<path fill="none" opacity="1.000000" stroke="none"
	d="
M1025.000000,375.000000
	C1025.000000,592.000000 1025.000000,808.500000 1025.000000,1025.000000
	C683.666687,1025.000000 342.333344,1025.000000 1.000000,1025.000000
	C1.000000,683.666687 1.000000,342.333344 1.000000,1.000000
	C342.333344,1.000000 683.666687,1.000000 1025.000000,1.000000
	C1025.000000,125.500000 1025.000000,250.000000 1025.000000,375.000000
M262.953522,603.102356
	C262.953522,603.102356 262.807373,603.072876 262.590363,603.994263
	C262.726898,610.695496 262.794922,617.399231 263.031342,624.096924
	C263.136292,627.069824 263.581329,630.030701 263.976837,633.799683
	C264.035858,634.875549 264.094879,635.951416 264.011047,637.955994
	C264.007355,672.787903 263.992737,707.619812 264.036987,742.451660
	C264.038910,743.967163 264.581329,745.481934 264.981323,747.672546
	C265.038849,748.124146 265.096375,748.575684 265.011047,749.955994
	C265.007355,766.787964 264.981354,783.619995 265.037933,800.451782
	C265.043030,801.967834 265.581299,803.481995 265.981384,805.672546
	C266.038879,806.124146 266.096405,806.575684 266.011047,807.955933
	C266.007355,811.788574 265.889954,815.625427 266.029541,819.452820
	C266.194336,823.971863 266.581299,828.482666 267.244080,833.750427
	C267.644623,837.145752 267.900055,840.565857 268.474304,843.931519
	C269.914917,852.375000 276.297241,856.923889 282.857666,860.890259
	C300.988800,871.852295 319.339813,882.450073 337.572266,893.245239
	C362.725403,908.137939 387.842133,923.092102 412.989136,937.995239
	C428.020569,946.903625 443.054260,955.808716 458.134216,964.634521
	C472.370697,972.966736 486.504211,981.497314 501.000549,989.354858
	C510.029053,994.248596 519.906433,996.312561 529.771912,991.564087
	C538.465149,987.379883 547.026062,982.867065 555.374817,978.031921
	C572.755493,967.966064 589.941406,957.564331 607.236755,947.350281
	C624.952515,936.888000 642.718445,926.510559 660.434753,916.049133
	C677.873718,905.751465 695.341858,895.500732 712.678711,885.033081
	C728.184448,875.670898 743.781433,866.418884 758.826233,856.353088
	C765.325928,852.004333 769.279541,844.834534 769.899963,836.776001
	C770.687622,826.545471 770.751892,816.259277 771.885010,805.581055
	C771.872314,772.397034 771.859619,739.213013 771.973022,705.095642
	C772.024719,687.396118 772.076355,669.696594 772.885071,651.581055
	C772.922791,635.761780 772.960571,619.942505 773.634766,603.786377
	C774.123169,603.187256 774.493347,602.387573 775.117981,602.019470
	C783.407349,597.133362 791.752197,592.341553 800.044434,587.460388
	C818.735779,576.457764 837.430298,565.460022 856.076660,554.381470
	C872.758850,544.469910 889.416870,534.516541 906.015869,524.466431
	C927.496277,511.460785 949.022156,498.523376 970.284546,485.168304
	C977.429810,480.680237 983.579102,474.754272 985.054749,465.734009
	C985.687439,461.866669 985.786560,457.912048 986.885010,453.581116
	C986.872314,444.397095 986.859619,435.213074 986.975952,425.356537
	C987.026672,424.903412 987.077393,424.450256 987.884949,423.581116
	C987.872253,388.397095 987.859619,353.213074 987.973022,317.095673
	C987.982056,279.774719 988.005066,242.453781 987.990479,205.132828
	C987.986633,195.328751 982.800171,187.638962 975.704346,182.182892
	C965.143372,174.062378 953.631226,167.132202 942.259644,160.124176
	C926.971924,150.702713 911.436096,141.683701 896.000488,132.502548
	C878.738220,122.234848 861.469727,111.977463 844.202209,101.718483
	C827.776123,91.959450 811.379395,82.150543 794.910339,72.464661
	C782.237915,65.011719 769.189026,58.159512 756.821472,50.237724
	C741.268799,40.275757 725.673767,38.975677 709.641418,48.173340
	C689.802612,59.554756 670.159790,71.278099 650.449524,82.883034
	C631.877869,93.817650 613.309387,104.757874 594.774414,115.754486
	C570.901672,129.917923 547.048706,144.114777 523.227356,158.364441
	C519.754150,160.442093 516.493774,160.554489 513.017578,158.541412
	C502.840698,152.647934 492.568054,146.917007 482.454315,140.917831
	C463.356873,129.589783 444.384583,118.050766 425.283966,106.728134
	C409.266022,97.232880 393.174164,87.860748 377.052246,78.542725
	C357.016693,66.962700 336.916534,55.494419 316.720123,43.225552
	C307.754181,39.552269 298.858154,38.347336 289.807770,44.613525
	C277.457062,51.329014 264.960419,57.791817 252.791183,64.821465
	C236.112320,74.456123 219.689972,84.534409 203.143051,94.398048
	C183.369278,106.185219 163.557373,117.908546 143.804016,129.729813
	C124.472176,141.298828 105.031746,152.699158 85.957970,164.681305
	C76.156609,170.838531 66.754959,177.735947 57.740532,185.003220
	C52.269955,189.413513 49.807777,195.507950 49.831470,203.225876
	C50.097870,290.013031 49.994507,376.801300 50.035896,463.589233
	C50.036804,465.496857 49.990532,467.803558 50.971668,469.234955
	C53.652294,473.145844 56.665730,476.880859 59.915520,480.339600
	C69.745300,490.801331 82.812042,496.586975 94.793625,503.897186
	C109.006310,512.568604 123.491776,520.791748 137.799881,529.308411
	C151.267090,537.324646 164.626923,545.521179 178.089569,553.545044
	C193.516846,562.739990 208.991928,571.854919 224.471664,580.961426
	C235.960846,587.720337 247.490616,594.410278 259.250397,601.794434
	C260.465973,602.276428 261.681549,602.758423 262.953522,603.102356
z"/>
<path fill="#D16D30" opacity="1.000000" stroke="none"
	d="
M986.128052,453.997101
	C985.786560,457.912048 985.687439,461.866669 985.054749,465.734009
	C983.579102,474.754272 977.429810,480.680237 970.284546,485.168304
	C949.022156,498.523376 927.496277,511.460785 906.015869,524.466431
	C889.416870,534.516541 872.758850,544.469910 856.076660,554.381470
	C837.430298,565.460022 818.735779,576.457764 800.044434,587.460388
	C791.752197,592.341553 783.407349,597.133362 775.117981,602.019470
	C774.493347,602.387573 774.123169,603.187256 772.922607,604.123047
	C772.183044,620.305481 772.155518,636.151245 772.128052,651.997070
	C772.076355,669.696594 772.024719,687.396118 771.561890,705.807861
	C771.143188,739.679138 771.135620,772.838074 771.128052,805.997070
	C770.751892,816.259277 770.687622,826.545471 769.899963,836.776001
	C769.279541,844.834534 765.325928,852.004333 758.826233,856.353088
	C743.781433,866.418884 728.184448,875.670898 712.678711,885.033081
	C695.341858,895.500732 677.873718,905.751465 660.434753,916.049133
	C642.718445,926.510559 624.952515,936.888000 607.236755,947.350281
	C589.941406,957.564331 572.755493,967.966064 555.374817,978.031921
	C547.026062,982.867065 538.465149,987.379883 529.771912,991.564087
	C519.906433,996.312561 510.029053,994.248596 501.000549,989.354858
	C486.504211,981.497314 472.370697,972.966736 458.134216,964.634521
	C443.054260,955.808716 428.020569,946.903625 412.989136,937.995239
	C387.842133,923.092102 362.725403,908.137939 337.572266,893.245239
	C319.339813,882.450073 300.988800,871.852295 282.857666,860.890259
	C276.297241,856.923889 269.914917,852.375000 268.474304,843.931519
	C267.900055,840.565857 267.644623,837.145752 267.112732,832.907471
	C266.987579,829.241516 267.088745,826.414856 266.979858,823.596313
	C266.766418,818.070862 266.435944,812.550049 266.153931,807.027283
	C266.096405,806.575684 266.038879,806.124146 265.981354,804.868530
	C265.987549,787.092957 266.013336,770.121338 265.963318,753.149963
	C265.959259,751.774902 265.435944,750.401489 265.153870,749.027283
	C265.096375,748.575684 265.038849,748.124146 264.981323,746.868530
	C264.987579,711.260681 265.004608,676.456909 264.964111,641.653137
	C264.962311,640.110840 264.435944,638.569214 264.153900,637.027283
	C264.094879,635.951416 264.035858,634.875549 263.979095,632.932129
	C263.987579,623.820374 264.050110,615.575439 263.946259,607.332703
	C263.928314,605.908203 263.204926,604.492615 262.807373,603.072876
	C262.807373,603.072876 262.953522,603.102356 262.907471,602.811096
	C261.575073,602.056885 260.288696,601.593872 259.002319,601.130920
	C247.490616,594.410278 235.960846,587.720337 224.471664,580.961426
	C208.991928,571.854919 193.516846,562.739990 178.089569,553.545044
	C164.626923,545.521179 151.267090,537.324646 137.799881,529.308411
	C123.491776,520.791748 109.006310,512.568604 94.793625,503.897186
	C82.812042,496.586975 69.745300,490.801331 59.915520,480.339600
	C56.665730,476.880859 53.652294,473.145844 50.971668,469.234955
	C49.990532,467.803558 50.036804,465.496857 50.035896,463.589233
	C49.994507,376.801300 50.097870,290.013031 49.831470,203.225876
	C49.807777,195.507950 52.269955,189.413513 57.740532,185.003220
	C66.754959,177.735947 76.156609,170.838531 85.957970,164.681305
	C105.031746,152.699158 124.472176,141.298828 143.804016,129.729813
	C163.557373,117.908546 183.369278,106.185219 203.143051,94.398048
	C219.689972,84.534409 236.112320,74.456123 252.791183,64.821465
	C264.960419,57.791817 277.457062,51.329014 290.375244,44.302788
	C296.836212,42.514336 302.574951,39.897289 308.904236,41.972946
	C311.491791,42.821526 314.194153,43.320091 316.844269,43.977886
	C336.916534,55.494419 357.016693,66.962700 377.052246,78.542725
	C393.174164,87.860748 409.266022,97.232880 425.283966,106.728134
	C444.384583,118.050766 463.356873,129.589783 482.454315,140.917831
	C492.568054,146.917007 502.840698,152.647934 513.017578,158.541412
	C516.493774,160.554489 519.754150,160.442093 523.227356,158.364441
	C547.048706,144.114777 570.901672,129.917923 594.774414,115.754486
	C613.309387,104.757874 631.877869,93.817650 650.449524,82.883034
	C670.159790,71.278099 689.802612,59.554756 709.641418,48.173340
	C725.673767,38.975677 741.268799,40.275757 756.821472,50.237724
	C769.189026,58.159512 782.237915,65.011719 794.910339,72.464661
	C811.379395,82.150543 827.776123,91.959450 844.202209,101.718483
	C861.469727,111.977463 878.738220,122.234848 896.000488,132.502548
	C911.436096,141.683701 926.971924,150.702713 942.259644,160.124176
	C953.631226,167.132202 965.143372,174.062378 975.704346,182.182892
	C982.800171,187.638962 987.986633,195.328751 987.990479,205.132828
	C988.005066,242.453781 987.982056,279.774719 987.561890,317.807922
	C987.143188,353.679138 987.135620,388.838135 987.128052,423.997101
	C987.077393,424.450256 987.026672,424.903412 986.563354,425.938354
	C986.143188,435.679138 986.135620,444.838135 986.128052,453.997101
M711.003967,74.004402
	C711.003967,74.004402 711.061584,74.075958 710.499817,73.413490
	C708.357544,74.963966 706.215210,76.514450 704.004883,78.005867
	C704.004883,78.005867 704.060364,78.076996 703.525696,77.420769
	C701.059753,78.946701 698.593872,80.472626 695.792664,82.628662
	C689.912659,86.098122 684.042175,89.583839 678.150574,93.033470
	C668.010742,98.970520 657.762207,104.728516 647.734314,110.848511
	C635.090515,118.565071 622.806763,126.884102 610.032166,134.370789
	C593.657104,143.967590 576.867432,152.854218 560.411255,162.316086
	C549.263306,168.725876 537.988831,175.044250 527.519287,182.460007
	C520.534790,187.407196 514.774231,187.210831 507.937286,183.039215
	C489.345001,171.695007 470.606781,160.589951 451.923187,149.395462
	C440.244476,142.398010 428.605713,135.332184 416.862396,128.444733
	C408.578003,123.585930 400.066956,119.112343 391.802795,114.220650
	C380.009430,107.239914 368.442596,99.874237 356.607727,92.966393
	C343.224365,85.154709 329.701355,77.577522 316.138916,70.079521
	C309.844543,66.599655 302.689819,64.823006 296.071228,67.709923
	C285.929199,72.133698 276.148254,77.495560 266.563019,83.060394
	C251.092041,92.042290 235.932480,101.559120 220.586426,110.758331
	C212.773010,115.442093 204.756958,119.790482 196.985825,124.541252
	C190.165222,128.710922 183.706589,133.480850 176.829391,137.548309
	C156.671143,149.470764 136.361099,161.136200 116.155907,172.979797
	C104.280449,179.940750 92.378670,186.870667 80.744652,194.219681
	C77.925903,196.000229 76.118530,199.381882 73.150597,202.519363
	C73.143044,212.011932 73.135483,221.504501 73.022598,231.751984
	C72.963760,232.510422 72.904930,233.268845 72.150597,234.519363
	C72.101715,282.294739 72.049187,330.070099 72.039032,377.845490
	C72.038879,378.554474 72.565399,379.263611 72.972031,380.772278
	C73.024040,381.849152 73.076050,382.926025 73.018936,384.935242
	C73.012627,405.239838 72.989891,425.544464 73.036415,445.848938
	C73.039566,447.224121 73.564087,448.598114 74.006920,450.805695
	C74.337929,452.556641 75.179764,454.392395 74.905861,456.042938
	C74.021561,461.371765 76.624290,464.867889 80.413353,467.883301
	C82.204178,469.308441 83.979546,470.799194 85.941185,471.956329
	C103.147873,482.106079 120.448822,492.096924 137.613541,502.316742
	C151.748703,510.732819 165.655899,519.532471 179.809250,527.917053
	C199.411514,539.529541 219.211227,550.808838 238.809280,562.428345
	C252.844925,570.749939 266.498718,579.732849 280.712616,587.727844
	C286.279419,590.859070 288.147949,594.401917 288.124939,600.617126
	C287.942902,649.745056 288.085388,698.874146 288.018951,748.935242
	C288.012634,775.072876 287.991974,801.210571 288.036224,827.348145
	C288.038849,828.890137 288.564087,830.431152 289.142395,832.621643
	C291.541595,835.439392 293.446320,839.018555 296.420898,840.950317
	C314.577576,852.741760 332.817078,864.424133 351.344391,875.620972
	C367.360962,885.300476 383.854767,894.186707 400.026886,903.613525
	C411.139954,910.091370 422.029358,916.951477 433.081635,923.535217
	C444.132019,930.117676 455.273193,936.547729 466.351685,943.083313
	C479.269135,950.703674 492.065552,958.535278 505.099915,965.949219
	C513.386414,970.662598 521.902832,971.909119 530.581421,966.184998
	C536.702271,962.147766 543.264221,958.786011 549.517822,954.941345
	C557.440430,950.070679 565.104431,944.765198 573.143616,940.101807
	C584.405029,933.569031 596.064941,927.718384 607.269958,921.094727
	C620.585571,913.223267 633.537598,904.739380 646.763000,896.711731
	C658.325195,889.693787 670.044250,882.934143 681.700623,876.071655
	C698.703003,866.061768 715.893188,856.353027 732.619263,845.901184
	C738.532471,842.206055 747.877869,840.516174 746.833923,829.518005
	C747.179993,819.346313 747.526001,809.174622 748.002075,798.484863
	C748.052673,798.314148 748.103333,798.143494 748.849426,797.480591
	C748.856995,766.321350 748.864502,735.162170 748.976868,703.200317
	C749.035889,702.124451 749.094910,701.048645 749.849426,699.480591
	C749.856934,669.321350 749.864502,639.162170 750.252930,608.237732
	C750.501953,603.651550 751.108398,599.048218 750.889282,594.484497
	C750.706909,590.685059 752.026550,588.684021 755.303650,586.820557
	C767.867798,579.675964 780.269714,572.243164 792.669617,564.813416
	C807.497681,555.928711 822.210693,546.851135 837.070984,538.021179
	C847.535889,531.802979 858.234131,525.977722 868.700928,519.762695
	C883.560425,510.939484 898.255188,501.839050 913.109314,493.006775
	C926.816162,484.856720 940.635437,476.895386 954.415771,468.869202
	C959.570740,465.866760 963.332886,462.174988 962.057739,455.445190
	C961.725220,453.690094 962.102600,451.800537 962.849365,449.480621
	C962.856934,425.654724 962.864441,401.828827 962.976807,377.145844
	C963.035889,375.421478 963.094910,373.697113 963.849365,371.480621
	C963.898254,345.037842 963.953735,318.595062 963.960632,292.152283
	C963.960815,291.444000 963.434631,290.735626 963.028015,289.172913
	C962.976013,287.447632 962.923950,285.722382 962.981079,283.064758
	C962.987366,261.093658 963.008911,239.122513 962.963745,217.151505
	C962.960938,215.776215 962.435913,214.402023 962.027466,212.102936
	C962.018311,210.105103 961.725403,208.059158 962.054504,206.118683
	C962.953430,200.817749 960.839539,197.508545 956.197571,194.972778
	C946.231323,189.528442 936.380493,183.861023 926.624329,178.046753
	C913.879700,170.451508 901.319641,162.546875 888.588684,154.928329
	C880.768799,150.248703 872.702759,145.980301 864.885437,141.296585
	C857.614380,136.940109 850.641541,132.081772 843.334412,127.790100
	C826.778687,118.066483 810.038574,108.656593 793.491699,98.918175
	C784.530273,93.644089 775.844177,87.904228 766.971924,82.475800
	C761.150085,78.913788 755.268860,75.441376 749.320923,72.094788
	C742.449768,68.228752 735.251343,65.001053 727.152222,67.097687
	C722.635742,68.266884 718.374207,70.420898 713.172485,72.022491
	C712.472534,72.703423 711.772583,73.384346 711.003967,74.004402
z"/>
<path fill="#FFFFFF" opacity="1.000000" stroke="none"
	d="
M264.082458,637.491638
	C264.435944,638.569214 264.962311,640.110840 264.964111,641.653137
	C265.004608,676.456909 264.987579,711.260681 264.926666,746.530762
	C264.581329,745.481934 264.038910,743.967163 264.036987,742.451660
	C263.992737,707.619812 264.007355,672.787903 264.082458,637.491638
z"/>
<path fill="#FFFFFF" opacity="1.000000" stroke="none"
	d="
M987.506470,423.789124
	C987.135620,388.838135 987.143188,353.679138 987.498901,318.274597
	C987.859619,353.213074 987.872253,388.397095 987.506470,423.789124
z"/>
<path fill="#FFFFFF" opacity="1.000000" stroke="none"
	d="
M771.506531,805.789062
	C771.135620,772.838074 771.143188,739.679138 771.498901,706.274536
	C771.859619,739.213013 771.872314,772.397034 771.506531,805.789062
z"/>
<path fill="#FFFFFF" opacity="1.000000" stroke="none"
	d="
M265.082458,749.491638
	C265.435944,750.401489 265.959259,751.774902 265.963318,753.149963
	C266.013336,770.121338 265.987549,787.092957 265.926636,804.530762
	C265.581299,803.481995 265.043030,801.967834 265.037933,800.451782
	C264.981354,783.619995 265.007355,766.787964 265.082458,749.491638
z"/>
<path fill="#FFFFFF" opacity="1.000000" stroke="none"
	d="
M772.506531,651.789062
	C772.155518,636.151245 772.183044,620.305481 772.604370,604.291443
	C772.960571,619.942505 772.922791,635.761780 772.506531,651.789062
z"/>
<path fill="#FFFFFF" opacity="1.000000" stroke="none"
	d="
M316.782196,43.601723
	C314.194153,43.320091 311.491791,42.821526 308.904236,41.972946
	C302.574951,39.897289 296.836212,42.514336 290.549194,43.984917
	C298.858154,38.347336 307.754181,39.552269 316.782196,43.601723
z"/>
<path fill="#FFFFFF" opacity="1.000000" stroke="none"
	d="
M262.698853,603.533569
	C263.204926,604.492615 263.928314,605.908203 263.946259,607.332703
	C264.050110,615.575439 263.987579,623.820374 263.926666,632.530762
	C263.581329,630.030701 263.136292,627.069824 263.031342,624.096924
	C262.794922,617.399231 262.726898,610.695496 262.698853,603.533569
z"/>
<path fill="#FFFFFF" opacity="1.000000" stroke="none"
	d="
M986.506531,453.789124
	C986.135620,444.838135 986.143188,435.679138 986.498901,426.274597
	C986.859619,435.213074 986.872314,444.397095 986.506531,453.789124
z"/>
<path fill="#FFFFFF" opacity="1.000000" stroke="none"
	d="
M266.082458,807.491577
	C266.435944,812.550049 266.766418,818.070862 266.979858,823.596313
	C267.088745,826.414856 266.987579,829.241516 266.926636,832.530762
	C266.581299,828.482666 266.194336,823.971863 266.029541,819.452820
	C265.889954,815.625427 266.007355,811.788574 266.082458,807.491577
z"/>
<path fill="#FFFFFF" opacity="1.000000" stroke="none"
	d="
M259.126343,601.462646
	C260.288696,601.593872 261.575073,602.056885 262.879272,602.880127
	C261.681549,602.758423 260.465973,602.276428 259.126343,601.462646
z"/>
<path fill="none" opacity="1.000000" stroke="none"
	d="
M72.846100,234.027283
	C72.904930,233.268845 72.963760,232.510422 73.453369,231.167145
	C73.871452,221.063965 73.858772,211.545624 73.846092,202.027283
	C76.118530,199.381882 77.925903,196.000229 80.744652,194.219681
	C92.378670,186.870667 104.280449,179.940750 116.155907,172.979797
	C136.361099,161.136200 156.671143,149.470764 176.829391,137.548309
	C183.706589,133.480850 190.165222,128.710922 196.985825,124.541252
	C204.756958,119.790482 212.773010,115.442093 220.586426,110.758331
	C235.932480,101.559120 251.092041,92.042290 266.563019,83.060394
	C276.148254,77.495560 285.929199,72.133698 296.071228,67.709923
	C302.689819,64.823006 309.844543,66.599655 316.138916,70.079521
	C329.701355,77.577522 343.224365,85.154709 356.607727,92.966393
	C368.442596,99.874237 380.009430,107.239914 391.802795,114.220650
	C400.066956,119.112343 408.578003,123.585930 416.862396,128.444733
	C428.605713,135.332184 440.244476,142.398010 451.923187,149.395462
	C470.606781,160.589951 489.345001,171.695007 507.937286,183.039215
	C514.774231,187.210831 520.534790,187.407196 527.519287,182.460007
	C537.988831,175.044250 549.263306,168.725876 560.411255,162.316086
	C576.867432,152.854218 593.657104,143.967590 610.032166,134.370789
	C622.806763,126.884102 635.090515,118.565071 647.734314,110.848511
	C657.762207,104.728516 668.010742,98.970520 678.150574,93.033470
	C684.042175,89.583839 689.912659,86.098122 696.320679,82.311371
	C699.252625,80.688393 701.656494,79.382706 704.060364,78.077011
	C704.060364,78.076996 704.004883,78.005867 704.367065,77.909813
	C706.839966,76.567825 708.950806,75.321884 711.061584,74.075951
	C711.061584,74.075958 711.003967,74.004402 711.336670,73.934555
	C712.445496,73.286858 713.221619,72.709000 713.997803,72.131134
	C718.374207,70.420898 722.635742,68.266884 727.152222,67.097687
	C735.251343,65.001053 742.449768,68.228752 749.320923,72.094788
	C755.268860,75.441376 761.150085,78.913788 766.971924,82.475800
	C775.844177,87.904228 784.530273,93.644089 793.491699,98.918175
	C810.038574,108.656593 826.778687,118.066483 843.334412,127.790100
	C850.641541,132.081772 857.614380,136.940109 864.885437,141.296585
	C872.702759,145.980301 880.768799,150.248703 888.588684,154.928329
	C901.319641,162.546875 913.879700,170.451508 926.624329,178.046753
	C936.380493,183.861023 946.231323,189.528442 956.197571,194.972778
	C960.839539,197.508545 962.953430,200.817749 962.054504,206.118683
	C961.725403,208.059158 962.018311,210.105103 962.019287,213.029907
	C962.007324,235.788528 961.986267,257.620239 962.037415,279.451782
	C962.040955,280.967529 962.581238,282.482025 962.871948,283.997101
	C962.923950,285.722382 962.976013,287.447632 963.019531,290.064880
	C963.058716,317.962158 963.106323,344.967438 963.153931,371.972748
	C963.094910,373.697113 963.035889,375.421478 962.546326,377.781799
	C962.128540,402.269409 962.141235,426.121063 962.153931,449.972748
	C962.102600,451.800537 961.725220,453.690094 962.057739,455.445190
	C963.332886,462.174988 959.570740,465.866760 954.415771,468.869202
	C940.635437,476.895386 926.816162,484.856720 913.109314,493.006775
	C898.255188,501.839050 883.560425,510.939484 868.700928,519.762695
	C858.234131,525.977722 847.535889,531.802979 837.070984,538.021179
	C822.210693,546.851135 807.497681,555.928711 792.669617,564.813416
	C780.269714,572.243164 767.867798,579.675964 755.303650,586.820557
	C752.026550,588.684021 750.706909,590.685059 750.889282,594.484497
	C751.108398,599.048218 750.501953,603.651550 749.684387,608.827698
	C749.128540,639.602722 749.141235,669.787720 749.153931,699.972778
	C749.094910,701.048645 749.035889,702.124451 748.546387,703.808960
	C748.128540,735.602722 748.141235,766.787720 748.153931,797.972778
	C748.103333,798.143494 748.052673,798.314148 747.558960,798.951294
	C746.795227,809.602722 746.474609,819.787842 746.153992,829.972900
	C747.877869,840.516174 738.532471,842.206055 732.619263,845.901184
	C715.893188,856.353027 698.703003,866.061768 681.700623,876.071655
	C670.044250,882.934143 658.325195,889.693787 646.763000,896.711731
	C633.537598,904.739380 620.585571,913.223267 607.269958,921.094727
	C596.064941,927.718384 584.405029,933.569031 573.143616,940.101807
	C565.104431,944.765198 557.440430,950.070679 549.517822,954.941345
	C543.264221,958.786011 536.702271,962.147766 530.581421,966.184998
	C521.902832,971.909119 513.386414,970.662598 505.099915,965.949219
	C492.065552,958.535278 479.269135,950.703674 466.351685,943.083313
	C455.273193,936.547729 444.132019,930.117676 433.081635,923.535217
	C422.029358,916.951477 411.139954,910.091370 400.026886,903.613525
	C383.854767,894.186707 367.360962,885.300476 351.344391,875.620972
	C332.817078,864.424133 314.577576,852.741760 296.420898,840.950317
	C293.446320,839.018555 291.541595,835.439392 289.065674,831.832397
	C288.992645,804.878113 289.010834,778.713196 288.962738,752.548279
	C288.959961,751.032654 288.418732,749.518005 288.128113,748.002930
	C288.085388,698.874146 287.942902,649.745056 288.124939,600.617126
	C288.147949,594.401917 286.279419,590.859070 280.712616,587.727844
	C266.498718,579.732849 252.844925,570.749939 238.809280,562.428345
	C219.211227,550.808838 199.411514,539.529541 179.809250,527.917053
	C165.655899,519.532471 151.748703,510.732819 137.613541,502.316742
	C120.448822,492.096924 103.147873,482.106079 85.941185,471.956329
	C83.979546,470.799194 82.204178,469.308441 80.413353,467.883301
	C76.624290,464.867889 74.021561,461.371765 74.905861,456.042938
	C75.179764,454.392395 74.337929,452.556641 73.997955,449.924408
	C73.992661,428.878113 74.015053,408.713013 73.962349,388.548157
	C73.958389,387.032379 73.418709,385.517944 73.128059,384.002899
	C73.076050,382.926025 73.024040,381.849152 72.980507,379.907715
	C72.992653,361.766174 73.015846,344.489197 72.995728,327.212280
	C72.959557,296.150604 72.897392,265.088959 72.846100,234.027283
M323.183807,596.335693
	C322.789185,598.725647 322.052887,601.115112 322.050110,603.505554
	C321.985321,659.154663 321.993103,714.803894 322.036499,770.453064
	C322.037659,771.967896 322.581268,773.482422 322.981354,775.672546
	C323.038849,776.124146 323.096375,776.575684 323.011047,777.955994
	C323.007355,788.788025 322.969727,799.620300 323.038788,810.451843
	C323.048462,811.968628 323.581299,813.482056 323.995514,815.729980
	C326.509827,817.833557 328.814545,820.277466 331.576569,821.978882
	C340.992462,827.778809 350.519867,833.403137 360.099152,838.930786
	C369.409332,844.303162 378.960175,849.265869 388.182434,854.781311
	C402.437866,863.307068 416.422913,872.284729 430.672028,880.821411
	C445.568634,889.745911 460.624725,898.405273 475.643768,907.124329
	C486.067963,913.175903 496.547516,919.132080 507.243500,925.787354
	C510.772705,927.384399 514.638611,930.754700 517.752380,930.163574
	C522.443420,929.273071 526.608826,925.613403 531.667236,922.821838
	C535.748840,920.555725 539.863464,918.346863 543.906311,916.013489
	C561.114746,906.081848 578.303772,896.116333 595.496277,886.157104
	C609.550415,878.015930 623.659058,869.966919 637.634094,861.692261
	C652.024963,853.171570 666.259766,844.387695 680.608093,835.794678
	C690.072266,830.126648 699.616577,824.592468 709.825684,818.996033
	C710.395325,818.652588 710.964966,818.309143 711.801636,817.990723
	C711.999817,817.889832 712.054504,817.737488 712.628967,816.888062
	C712.752625,815.910645 712.984314,814.933228 712.984558,813.955811
	C713.001465,740.810364 713.004395,667.664856 712.959534,594.519409
	C712.958862,593.397583 712.349426,592.276184 711.388000,590.859192
	C709.962524,589.766418 708.630249,588.516846 707.096741,587.606018
	C695.897827,580.954285 684.592041,574.480652 673.447571,567.739746
	C656.709351,557.615295 640.154358,547.186523 623.369141,537.141663
	C612.192932,530.453369 600.649963,524.379272 589.450500,517.728210
	C568.274536,505.152344 547.339111,492.166931 526.034241,479.816437
	C521.728882,477.320587 516.761841,473.540039 510.977753,477.514221
	C506.299164,480.728821 501.537750,483.834839 496.696320,486.798248
	C478.878326,497.704590 461.042480,508.582611 443.146179,519.359741
	C437.153503,522.968445 430.877014,526.105042 424.874390,529.698181
	C409.694031,538.785034 394.653137,548.105530 379.447388,557.149109
	C365.128876,565.664978 350.607361,573.840027 336.307129,582.385925
	C330.862091,585.639893 324.963867,588.778564 323.183807,596.335693
M926.988953,259.044098
	C926.992676,246.667587 927.053223,234.290421 926.913696,221.915558
	C926.899475,220.654922 925.684021,219.407837 924.379333,217.858734
	C922.868530,216.894104 921.392029,215.870102 919.841431,214.974380
	C908.581177,208.469742 897.252014,202.082458 886.050598,195.478424
	C874.660583,188.763214 863.437012,181.765717 852.056519,175.033997
	C841.424255,168.744843 830.589722,162.794418 820.014099,156.413467
	C809.985291,150.362442 800.294800,143.748978 790.244324,137.735901
	C774.144592,128.103561 757.973816,118.577843 741.601074,109.421944
	C737.221741,106.972954 732.959900,102.820847 726.704590,106.580627
	C710.375793,116.395248 693.676758,125.591515 677.264954,135.271072
	C652.705872,149.755890 628.275269,164.458435 603.773132,179.039963
	C582.241699,191.853607 560.668823,204.597763 539.174255,217.472733
	C537.273438,218.611298 535.816833,220.491486 534.011047,222.955902
	C534.007385,233.787964 533.969727,244.620224 534.038818,255.451828
	C534.048462,256.968628 534.581299,258.482086 534.977356,260.752014
	C535.036194,261.510437 535.095032,262.268829 535.011047,263.955902
	C535.007324,315.454468 534.996216,366.953064 535.036621,418.451599
	C535.037781,419.966980 535.581299,421.481934 535.976990,423.893097
	C536.319214,429.492249 536.521606,435.105896 537.100342,440.680481
	C537.248230,442.105225 538.255798,443.904480 539.430847,444.685211
	C548.591980,450.772034 557.765869,456.858215 567.176392,462.546692
	C580.705566,470.724884 594.438354,478.566101 608.083374,486.552734
	C622.518860,495.002075 636.984009,503.401184 651.376221,511.923584
	C659.660950,516.829407 667.782532,522.010071 676.055969,526.935486
	C690.175537,535.341370 704.457703,543.478760 718.469238,552.059326
	C725.431641,556.323120 731.843628,558.516541 739.723083,553.817627
	C756.672363,543.710083 774.015503,534.265625 791.071899,524.334045
	C801.620422,518.191833 811.862793,511.525391 822.378540,505.324738
	C835.519104,497.576355 848.858337,490.165100 862.004578,482.426147
	C879.567322,472.087250 897.016785,461.556061 914.538513,451.147186
	C918.686279,448.683136 922.927979,446.377106 927.988220,443.976166
	C928.325439,443.016876 928.953064,442.058685 928.956604,441.098175
	C929.017029,424.906464 929.012878,408.714417 928.962646,392.522644
	C928.960083,391.681885 928.418640,390.842773 928.022644,389.247986
	C927.963806,388.489563 927.904907,387.731171 927.988953,386.044098
	C927.992676,347.212158 928.006165,308.380249 927.963135,269.548340
	C927.961487,268.032898 927.418701,266.518036 927.023193,264.168335
	C926.964172,262.769806 926.905151,261.371277 926.988953,259.044098
M498.021790,221.257889
	C497.204834,219.912231 496.711853,218.052185 495.520111,217.301590
	C485.190369,210.795609 474.805206,204.370544 464.301544,198.149353
	C446.125793,187.384079 427.815735,176.845642 409.633514,166.091202
	C395.359711,157.648514 381.217712,148.983246 366.970642,140.494934
	C358.745483,135.594437 350.453735,130.804077 342.145996,126.044258
	C330.380035,119.303085 318.627960,112.532539 306.720673,106.048676
	C304.937927,105.077919 301.839111,104.679222 300.202332,105.574951
	C286.191895,113.242325 272.269348,121.085686 258.532990,129.234604
	C241.010742,139.629456 223.738388,150.444824 206.253571,160.903809
	C198.295303,165.664276 189.952194,169.783966 182.019653,174.584290
	C168.337479,182.863953 154.867401,191.493195 141.255859,199.890732
	C130.202499,206.710037 119.072227,213.404724 107.138206,220.404221
	C107.092133,222.230682 107.006042,224.057159 107.005814,225.883621
	C106.998718,282.769409 106.992805,339.655182 107.006882,396.540955
	C107.009308,406.350952 107.102081,416.160980 107.027077,426.902435
	C107.018242,431.234924 106.895401,435.572021 107.068779,439.897186
	C107.122070,441.226593 107.594406,443.154785 108.537521,443.739044
	C119.635712,450.614136 130.799515,457.389008 142.067108,463.983398
	C154.842087,471.459991 167.796112,478.630737 180.566330,486.115265
	C190.848495,492.141510 200.947083,498.480133 211.176132,504.598206
	C218.293716,508.855316 225.561691,512.863159 232.641754,517.180298
	C242.649109,523.282410 252.425812,529.769409 262.521057,535.718750
	C273.273438,542.055298 284.618866,547.441101 295.047974,554.249084
	C300.960938,558.108948 306.118256,557.617249 311.583679,555.009338
	C316.968353,552.440002 322.094116,549.299866 327.218994,546.219727
	C340.900726,537.996704 354.471863,529.589111 368.183746,521.417236
	C376.546967,516.432983 385.176971,511.895386 393.526245,506.888885
	C401.778198,501.940765 409.724304,496.481750 417.986572,491.551880
	C438.120270,479.538452 458.461700,467.870178 478.499207,455.700195
	C485.291748,451.574738 491.504059,446.464478 497.787292,441.555634
	C498.990967,440.615234 499.906311,438.512390 499.908875,436.944122
	C499.973206,397.620422 499.897278,358.296539 499.988953,318.044006
	C499.992645,288.098907 500.033417,258.153625 499.919586,228.208984
	C499.911743,226.137985 498.752960,224.071335 498.021790,221.257889
z"/>
<path fill="#FFFFFF" opacity="1.000000" stroke="none"
	d="
M72.498344,234.273315
	C72.897392,265.088959 72.959557,296.150604 72.995728,327.212280
	C73.015846,344.489197 72.992653,361.766174 72.917549,379.507874
	C72.565399,379.263611 72.038879,378.554474 72.039032,377.845490
	C72.049187,330.070099 72.101715,282.294739 72.498344,234.273315
z"/>
<path fill="#FFFFFF" opacity="1.000000" stroke="none"
	d="
M748.501709,797.726685
	C748.141235,766.787720 748.128540,735.602722 748.493958,704.210327
	C748.864502,735.162170 748.856995,766.321350 748.501709,797.726685
z"/>
<path fill="#FFFFFF" opacity="1.000000" stroke="none"
	d="
M749.501709,699.726685
	C749.141235,669.787720 749.128540,639.602722 749.493958,609.210327
	C749.864502,639.162170 749.856934,669.321350 749.501709,699.726685
z"/>
<path fill="#FFFFFF" opacity="1.000000" stroke="none"
	d="
M288.073547,748.469116
	C288.418732,749.518005 288.959961,751.032654 288.962738,752.548279
	C289.010834,778.713196 288.992645,804.878113 288.917542,831.507874
	C288.564087,830.431152 288.038849,828.890137 288.036224,827.348145
	C287.991974,801.210571 288.012634,775.072876 288.073547,748.469116
z"/>
<path fill="#FFFFFF" opacity="1.000000" stroke="none"
	d="
M963.501709,371.726685
	C963.106323,344.967438 963.058716,317.962158 963.082520,290.492065
	C963.434631,290.735626 963.960815,291.444000 963.960632,292.152283
	C963.953735,318.595062 963.898254,345.037842 963.501709,371.726685
z"/>
<path fill="#FFFFFF" opacity="1.000000" stroke="none"
	d="
M962.501648,449.726685
	C962.141235,426.121063 962.128540,402.269409 962.493896,378.210327
	C962.864441,401.828827 962.856934,425.654724 962.501648,449.726685
z"/>
<path fill="#FFFFFF" opacity="1.000000" stroke="none"
	d="
M962.926514,283.530945
	C962.581238,282.482025 962.040955,280.967529 962.037415,279.451782
	C961.986267,257.620239 962.007324,235.788528 962.082458,213.492096
	C962.435913,214.402023 962.960938,215.776215 962.963745,217.151505
	C963.008911,239.122513 962.987366,261.093658 962.926514,283.530945
z"/>
<path fill="#FFFFFF" opacity="1.000000" stroke="none"
	d="
M73.073502,384.469055
	C73.418709,385.517944 73.958389,387.032379 73.962349,388.548157
	C74.015053,408.713013 73.992661,428.878113 73.917557,449.507874
	C73.564087,448.598114 73.039566,447.224121 73.036415,445.848938
	C72.989891,425.544464 73.012627,405.239838 73.073502,384.469055
z"/>
<path fill="#FFFFFF" opacity="1.000000" stroke="none"
	d="
M746.493958,829.745483
	C746.474609,819.787842 746.795227,809.602722 747.493958,799.210327
	C747.526001,809.174622 747.179993,819.346313 746.493958,829.745483
z"/>
<path fill="#FFFFFF" opacity="1.000000" stroke="none"
	d="
M73.498344,202.273315
	C73.858772,211.545624 73.871452,221.063965 73.506027,230.789688
	C73.135483,221.504501 73.143044,212.011932 73.498344,202.273315
z"/>
<path fill="#FFFFFF" opacity="1.000000" stroke="none"
	d="
M703.793030,77.748894
	C701.656494,79.382706 699.252625,80.688393 696.488342,81.996315
	C698.593872,80.472626 701.059753,78.946701 703.793030,77.748894
z"/>
<path fill="#FFFFFF" opacity="1.000000" stroke="none"
	d="
M710.780701,73.744720
	C708.950806,75.321884 706.839966,76.567825 704.401062,77.939346
	C706.215210,76.514450 708.357544,74.963966 710.780701,73.744720
z"/>
<path fill="#FFFFFF" opacity="1.000000" stroke="none"
	d="
M713.585144,72.076820
	C713.221619,72.709000 712.445496,73.286858 711.370972,73.964989
	C711.772583,73.384346 712.472534,72.703423 713.585144,72.076820
z"/>
<path fill="#D16D30" opacity="1.000000" stroke="none"
	d="
M499.846069,318.972656
	C499.897278,358.296539 499.973206,397.620422 499.908875,436.944122
	C499.906311,438.512390 498.990967,440.615234 497.787292,441.555634
	C491.504059,446.464478 485.291748,451.574738 478.499207,455.700195
	C458.461700,467.870178 438.120270,479.538452 417.986572,491.551880
	C409.724304,496.481750 401.778198,501.940765 393.526245,506.888885
	C385.176971,511.895386 376.546967,516.432983 368.183746,521.417236
	C354.471863,529.589111 340.900726,537.996704 327.218994,546.219727
	C322.094116,549.299866 316.968353,552.440002 311.583679,555.009338
	C306.118256,557.617249 300.960938,558.108948 295.047974,554.249084
	C284.618866,547.441101 273.273438,542.055298 262.521057,535.718750
	C252.425812,529.769409 242.649109,523.282410 232.641754,517.180298
	C225.561691,512.863159 218.293716,508.855316 211.176132,504.598206
	C200.947083,498.480133 190.848495,492.141510 180.566330,486.115265
	C167.796112,478.630737 154.842087,471.459991 142.067108,463.983398
	C130.799515,457.389008 119.635712,450.614136 108.537521,443.739044
	C107.594406,443.154785 107.122070,441.226593 107.068779,439.897186
	C106.895401,435.572021 107.018242,431.234924 107.438141,426.191132
	C107.899429,424.483978 107.993629,423.488159 107.993614,422.492310
	C107.992599,355.046417 107.984001,287.600555 107.976059,220.154678
	C119.072227,213.404724 130.202499,206.710037 141.255859,199.890732
	C154.867401,191.493195 168.337479,182.863953 182.019653,174.584290
	C189.952194,169.783966 198.295303,165.664276 206.253571,160.903809
	C223.738388,150.444824 241.010742,139.629456 258.532990,129.234604
	C272.269348,121.085686 286.191895,113.242325 300.202332,105.574951
	C301.839111,104.679222 304.937927,105.077919 306.720673,106.048676
	C318.627960,112.532539 330.380035,119.303085 342.145996,126.044258
	C350.453735,130.804077 358.745483,135.594437 366.970642,140.494934
	C381.217712,148.983246 395.359711,157.648514 409.633514,166.091202
	C427.815735,176.845642 446.125793,187.384079 464.301544,198.149353
	C474.805206,204.370544 485.190369,210.795609 495.520111,217.301590
	C496.711853,218.052185 497.204834,219.912231 498.022003,222.057297
	C498.348145,225.933655 498.948669,229.009872 498.957031,232.087692
	C499.031006,259.344299 498.984833,286.601227 499.036285,313.857971
	C499.039490,315.563354 499.564087,317.267792 499.846069,318.972656
z"/>
<path fill="#D16D30" opacity="1.000000" stroke="none"
	d="
M927.846069,386.972748
	C927.904907,387.731171 927.963806,388.489563 928.020630,390.091736
	C928.012390,406.704803 928.035706,422.474304 927.961487,438.243286
	C927.952393,440.162933 927.417603,442.080078 927.126465,443.998352
	C922.927979,446.377106 918.686279,448.683136 914.538513,451.147186
	C897.016785,461.556061 879.567322,472.087250 862.004578,482.426147
	C848.858337,490.165100 835.519104,497.576355 822.378540,505.324738
	C811.862793,511.525391 801.620422,518.191833 791.071899,524.334045
	C774.015503,534.265625 756.672363,543.710083 739.723083,553.817627
	C731.843628,558.516541 725.431641,556.323120 718.469238,552.059326
	C704.457703,543.478760 690.175537,535.341370 676.055969,526.935486
	C667.782532,522.010071 659.660950,516.829407 651.376221,511.923584
	C636.984009,503.401184 622.518860,495.002075 608.083374,486.552734
	C594.438354,478.566101 580.705566,470.724884 567.176392,462.546692
	C557.765869,456.858215 548.591980,450.772034 539.430847,444.685211
	C538.255798,443.904480 537.248230,442.105225 537.100342,440.680481
	C536.521606,435.105896 536.319214,429.492249 535.979187,422.978821
	C535.987610,370.594482 536.001160,319.124481 535.964478,267.654480
	C535.963379,266.111877 535.435913,264.569641 535.153931,263.027252
	C535.095032,262.268829 535.036194,261.510437 534.979370,259.908264
	C534.987549,248.257996 535.027283,237.451263 534.962219,226.645172
	C534.952942,225.104294 534.435913,223.566483 534.153931,222.027252
	C535.816833,220.491486 537.273438,218.611298 539.174255,217.472733
	C560.668823,204.597763 582.241699,191.853607 603.773132,179.039963
	C628.275269,164.458435 652.705872,149.755890 677.264954,135.271072
	C693.676758,125.591515 710.375793,116.395248 726.704590,106.580627
	C732.959900,102.820847 737.221741,106.972954 741.601074,109.421944
	C757.973816,118.577843 774.144592,128.103561 790.244324,137.735901
	C800.294800,143.748978 809.985291,150.362442 820.014099,156.413467
	C830.589722,162.794418 841.424255,168.744843 852.056519,175.033997
	C863.437012,181.765717 874.660583,188.763214 886.050598,195.478424
	C897.252014,202.082458 908.581177,208.469742 919.841431,214.974380
	C921.392029,215.870102 922.868530,216.894104 924.884644,218.378235
	C925.593262,220.489822 925.964905,222.081085 925.972839,223.674164
	C926.025391,234.245041 925.966125,244.816513 926.037659,255.387161
	C926.048035,256.917450 926.564087,258.444305 926.846069,259.972748
	C926.905151,261.371277 926.964172,262.769806 927.020874,265.051910
	C927.012451,304.739136 926.996460,343.542816 927.035706,382.346436
	C927.037231,383.888824 927.564026,385.430664 927.846069,386.972748
z"/>
<path fill="#D16D30" opacity="1.000000" stroke="none"
	d="
M709.125122,818.998413
	C699.616577,824.592468 690.072266,830.126648 680.608093,835.794678
	C666.259766,844.387695 652.024963,853.171570 637.634094,861.692261
	C623.659058,869.966919 609.550415,878.015930 595.496277,886.157104
	C578.303772,896.116333 561.114746,906.081848 543.906311,916.013489
	C539.863464,918.346863 535.748840,920.555725 530.963684,922.928650
	C522.847229,927.504517 515.333679,930.856079 507.002319,925.130920
	C496.547516,919.132080 486.067963,913.175903 475.643768,907.124329
	C460.624725,898.405273 445.568634,889.745911 430.672028,880.821411
	C416.422913,872.284729 402.437866,863.307068 388.182434,854.781311
	C378.960175,849.265869 369.409332,844.303162 360.099152,838.930786
	C350.519867,833.403137 340.992462,827.778809 331.576569,821.978882
	C328.814545,820.277466 326.509827,817.833557 323.988434,814.897217
	C323.987579,803.257996 324.027283,792.451294 323.962219,781.645203
	C323.952972,780.104309 323.435944,778.566528 323.153900,777.027283
	C323.096375,776.575684 323.038849,776.124146 322.981354,774.868530
	C322.987579,762.087952 322.934479,750.111084 323.010437,738.134949
	C323.310669,690.808228 323.651398,643.481812 323.977081,596.155273
	C324.963867,588.778564 330.862091,585.639893 336.307129,582.385925
	C350.607361,573.840027 365.128876,565.664978 379.447388,557.149109
	C394.653137,548.105530 409.694031,538.785034 424.874390,529.698181
	C430.877014,526.105042 437.153503,522.968445 443.146179,519.359741
	C461.042480,508.582611 478.878326,497.704590 496.696320,486.798248
	C501.537750,483.834839 506.299164,480.728821 510.977753,477.514221
	C516.761841,473.540039 521.728882,477.320587 526.034241,479.816437
	C547.339111,492.166931 568.274536,505.152344 589.450500,517.728210
	C600.649963,524.379272 612.192932,530.453369 623.369141,537.141663
	C640.154358,547.186523 656.709351,557.615295 673.447571,567.739746
	C684.592041,574.480652 695.897827,580.954285 707.096741,587.606018
	C708.630249,588.516846 709.962524,589.766418 711.696533,591.464355
	C711.991882,667.224304 711.978760,742.378967 711.965637,817.533691
	C712.054504,817.737488 711.999817,817.889832 711.372192,817.632935
	C710.336853,817.849548 709.730957,818.423950 709.125122,818.998413
z"/>
<path fill="#FFFFFF" opacity="1.000000" stroke="none"
	d="
M712.297302,817.210876
	C711.978760,742.378967 711.991882,667.224304 712.014648,591.612061
	C712.349426,592.276184 712.958862,593.397583 712.959534,594.519409
	C713.004395,667.664856 713.001465,740.810364 712.984558,813.955811
	C712.984314,814.933228 712.752625,815.910645 712.297302,817.210876
z"/>
<path fill="#FFFFFF" opacity="1.000000" stroke="none"
	d="
M107.557129,220.279449
	C107.984001,287.600555 107.992599,355.046417 107.993614,422.492310
	C107.993629,423.488159 107.899429,424.483978 107.501160,425.725403
	C107.102081,416.160980 107.009308,406.350952 107.006882,396.540955
	C106.992805,339.655182 106.998718,282.769409 107.005814,225.883621
	C107.006042,224.057159 107.092133,222.230682 107.557129,220.279449
z"/>
<path fill="#FFFFFF" opacity="1.000000" stroke="none"
	d="
M323.580444,596.245483
	C323.651398,643.481812 323.310669,690.808228 323.010437,738.134949
	C322.934479,750.111084 322.987579,762.087952 322.926636,774.530762
	C322.581268,773.482422 322.037659,771.967896 322.036499,770.453064
	C321.993103,714.803894 321.985321,659.154663 322.050110,603.505554
	C322.052887,601.115112 322.789185,598.725647 323.580444,596.245483
z"/>
<path fill="#FFFFFF" opacity="1.000000" stroke="none"
	d="
M535.082520,263.491577
	C535.435913,264.569641 535.963379,266.111877 535.964478,267.654480
	C536.001160,319.124481 535.987610,370.594482 535.926636,422.530823
	C535.581299,421.481934 535.037781,419.966980 535.036621,418.451599
	C534.996216,366.953064 535.007324,315.454468 535.082520,263.491577
z"/>
<path fill="#FFFFFF" opacity="1.000000" stroke="none"
	d="
M927.917480,386.508423
	C927.564026,385.430664 927.037231,383.888824 927.035706,382.346436
	C926.996460,343.542816 927.012451,304.739136 927.073364,265.469177
	C927.418701,266.518036 927.961487,268.032898 927.963135,269.548340
	C928.006165,308.380249 927.992676,347.212158 927.917480,386.508423
z"/>
<path fill="#FFFFFF" opacity="1.000000" stroke="none"
	d="
M499.917542,318.508331
	C499.564087,317.267792 499.039490,315.563354 499.036285,313.857971
	C498.984833,286.601227 499.031006,259.344299 498.957031,232.087692
	C498.948669,229.009872 498.348145,225.933655 498.075836,222.429688
	C498.752960,224.071335 499.911743,226.137985 499.919586,228.208984
	C500.033417,258.153625 499.992645,288.098907 499.917542,318.508331
z"/>
<path fill="#FFFFFF" opacity="1.000000" stroke="none"
	d="
M927.557373,443.987274
	C927.417603,442.080078 927.952393,440.162933 927.961487,438.243286
	C928.035706,422.474304 928.012390,406.704803 928.073364,390.469177
	C928.418640,390.842773 928.960083,391.681885 928.962646,392.522644
	C929.012878,408.714417 929.017029,424.906464 928.956604,441.098175
	C928.953064,442.058685 928.325439,443.016876 927.557373,443.987274
z"/>
<path fill="#FFFFFF" opacity="1.000000" stroke="none"
	d="
M926.917480,259.508423
	C926.564087,258.444305 926.048035,256.917450 926.037659,255.387161
	C925.966125,244.816513 926.025391,234.245041 925.972839,223.674164
	C925.964905,222.081085 925.593262,220.489822 925.208008,218.526093
	C925.684021,219.407837 926.899475,220.654922 926.913696,221.915558
	C927.053223,234.290421 926.992676,246.667587 926.917480,259.508423
z"/>
<path fill="#FFFFFF" opacity="1.000000" stroke="none"
	d="
M534.082520,222.491577
	C534.435913,223.566483 534.952942,225.104294 534.962219,226.645172
	C535.027283,237.451263 534.987549,248.257996 534.926636,259.530823
	C534.581299,258.482086 534.048462,256.968628 534.038818,255.451828
	C533.969727,244.620224 534.007385,233.787964 534.082520,222.491577
z"/>
<path fill="#FFFFFF" opacity="1.000000" stroke="none"
	d="
M323.082458,777.491638
	C323.435944,778.566528 323.952972,780.104309 323.962219,781.645203
	C324.027283,792.451294 323.987579,803.257996 323.926636,814.530762
	C323.581299,813.482056 323.048462,811.968628 323.038788,810.451843
	C322.969727,799.620300 323.007355,788.788025 323.082458,777.491638
z"/>
<path fill="#FFFFFF" opacity="1.000000" stroke="none"
	d="
M507.122925,925.459106
	C515.333679,930.856079 522.847229,927.504517 530.628906,923.083130
	C526.608826,925.613403 522.443420,929.273071 517.752380,930.163574
	C514.638611,930.754700 510.772705,927.384399 507.122925,925.459106
z"/>
<path fill="#FFFFFF" opacity="1.000000" stroke="none"
	d="
M709.475403,818.997192
	C709.730957,818.423950 710.336853,817.849548 711.238647,817.620483
	C710.964966,818.309143 710.395325,818.652588 709.475403,818.997192
z"/>
</svg>
